<svg xmlns="http://www.w3.org/2000/svg" viewBox="0 0 401.9 97.51"><defs><style>.cls-1{fill:#007ec4;}.cls-1,.cls-2{fill-rule:evenodd;}.cls-2{fill:#373636;}</style></defs><title>资源 1</title><g id="图层_2" data-name="图层 2"><g id="鍥惧眰_1" data-name="鍥惧眰 1"><path class="cls-1" d="M30.21,64.07l-27,15.62A2,2,0,0,1,0,77.91V2.12C-.08.28,1.6-.68,3.28.56l32.6,18.81a3.78,3.78,0,0,1,1.89,3.27V55.36l31.3,18.07c1.29.74,1.41,2.27.22,3l-36,20.79a2,2,0,0,1-3.08-1.79V64.07ZM7.57,68.42,30.21,55.35V24.81L7.57,11.74V68.42Zm30.21-4.36v21.8L56.66,75Z"/><path class="cls-2" d="M81.72,47.74a14.53,14.53,0,0,0,29.06,0,14.53,14.53,0,0,0-29.06-.05v.05Zm6.47,0a8,8,0,1,1,16.07,0,8,8,0,1,1-16.07,0v0Zm26.3,23.09H121V58.48c1.39,1.6,4.4,3.7,9.24,3.7,8,0,13.45-6.48,13.45-14.19,0-6.57-4-14.63-13.5-14.63a12,12,0,0,0-9.59,4.35V34.2h-6.08V70.83Zm22.69-23a8.26,8.26,0,1,1-8.3-8.4,8.17,8.17,0,0,1,8.3,8.4Zm36.88,2.13a14.64,14.64,0,0,0-4-12.41,13.86,13.86,0,0,0-10.14-4.15,14.41,14.41,0,0,0,.1,28.82,13.44,13.44,0,0,0,7.76-2.37A15.29,15.29,0,0,0,173.27,53H166.6a7,7,0,0,1-6.53,3.66c-3.71,0-7.56-2.37-7.86-6.72Zm-21.75-5c.25-2.66,2.87-6.12,7.66-6.12A7.46,7.46,0,0,1,167.68,45Zm25.41,16.37h6.47v-15c0-3.81,1.59-6.87,6.18-6.92s5.89,3.11,5.89,7.17V61.34h6.47V44.12c0-4.63-2.42-10.72-10.53-10.76a9.86,9.86,0,0,0-8.4,3.85v-3h-6.08V61.34Zm30.55,0h18V57.73H212.37v-33h-4.1V61.34ZM225.88,48v0a14.11,14.11,0,0,1,28.22,0,14.11,14.11,0,0,1-28.22,0Zm3.6,0v.05a10.48,10.48,0,1,0,21-.05,10.48,10.48,0,1,0-21,0Zm27.25,0A14.12,14.12,0,0,0,285,48a14.12,14.12,0,0,0-28.23,0v0Zm3.61,0a10.48,10.48,0,1,1,21,0,10.48,10.48,0,1,1-21,.05V48Zm29.77,13.3h4.05V44l15.77,17.35H315L298.16,43l15.33-18.24H309L294.16,42.45V24.76h-4.05V61.34ZM341,49.08H316.81a10.13,10.13,0,0,0,10.38,9.84,9.83,9.83,0,0,0,9.14-5.49h3.81a14.1,14.1,0,0,1-5.39,6.47,13.84,13.84,0,0,1-7.56,2.18c-9.25,0-14-7.37-14-14a14,14,0,1,1,27.88,1Zm-24.17-2.92h20.56c-.25-4.65-4.74-9.19-10.23-9a10.07,10.07,0,0,0-10.33,9ZM345,61.34h3.66V46.72c0-5.54,3.34-9.26,8.83-9.31,6-.1,8.37,3.71,8.37,8.78V61.34h3.61V46.21c0-6.47-2.91-12.11-11.17-12.21-4.75-.1-8,1.92-9.84,5V34.74H345v26.6Zm56.91-26.6h-3.61v4.69c-1.48-2.76-5.54-5.43-10.78-5.43-8.1,0-13.89,6.13-13.89,14.09,0,7.66,5.59,14,13.89,14,5.14,0,8.92-2.3,10.73-5.45v2.48A10.3,10.3,0,0,1,388,69.69c-4.53,0-7.59-2-9.28-5.44h-4c1.68,4.8,6.53,8.6,13.15,8.6,8.46,0,14-6.34,14-14.58V34.74ZM377.28,48a10.35,10.35,0,0,1,10.58-10.58A9.81,9.81,0,0,1,396,41.12a11.46,11.46,0,0,1,2.42,7,11.16,11.16,0,0,1-3,7.51A10.2,10.2,0,0,1,388,58.67,10.33,10.33,0,0,1,377.28,48Z"/></g></g></svg>